HIERARCHY
ROOT RootJoint
{
    OFFSET   0.000000   0.000000   0.000000
    CHANNELS 6 Xposition Yposition Zposition Xrotation Yrotation Zrotation
    JOINT pelvis_lowerback
    {
        OFFSET   0.000000   0.093605   0.000000
        CHANNELS 3 Xrotation Yrotation Zrotation
        JOINT lowerback_torso
        {
            OFFSET   0.000000   0.100000   0.000000
            CHANNELS 3 Xrotation Yrotation Zrotation
            JOINT torso_head
            {
                OFFSET   0.000000   0.282350   0.000000
                CHANNELS 3 Xrotation Yrotation Zrotation
                End Site
                {
                    OFFSET   0.000000   0.192650   0.000000
                }
            }
            JOINT rTorso_Clavicle
            {
                OFFSET  -0.001000   0.157500   0.000000
                CHANNELS 3 Xrotation Yrotation Zrotation
                JOINT rShoulder
                {
                    OFFSET  -0.117647   0.000000   0.000000
                    CHANNELS 3 Xrotation Yrotation Zrotation
                    JOINT rElbow
                    {
                        OFFSET  -0.245000   0.000000   0.000000
                        CHANNELS 3 Xrotation Yrotation Zrotation
                        JOINT rWrist
                        {
                            OFFSET  -0.240000   0.000000   0.000000
                            CHANNELS 3 Xrotation Yrotation Zrotation
                            End Site
                            {
                                OFFSET  -0.116353  -0.002500   0.000000
                            }
                        }
                    }
                }
            }
            JOINT lTorso_Clavicle
            {
                OFFSET   0.001000   0.157500   0.000000
                CHANNELS 3 Xrotation Yrotation Zrotation
                JOINT lShoulder
                {
                    OFFSET   0.117647   0.000000   0.000000
                    CHANNELS 3 Xrotation Yrotation Zrotation
                    JOINT lElbow
                    {
                        OFFSET   0.245000   0.000000   0.000000
                        CHANNELS 3 Xrotation Yrotation Zrotation
                        JOINT lWrist
                        {
                            OFFSET   0.240000   0.000000   0.000000
                            CHANNELS 3 Xrotation Yrotation Zrotation
                            End Site
                            {
                                OFFSET   0.116353  -0.002500   0.000000
                            }
                        }
                    }
                }
            }
        }
    }
    JOINT rHip
    {
        OFFSET  -0.100000  -0.051395   0.000000
        CHANNELS 3 Xrotation Yrotation Zrotation
        JOINT rKnee
        {
            OFFSET   0.000000  -0.410000   0.000000
            CHANNELS 3 Xrotation Yrotation Zrotation
            JOINT rAnkle
            {
                OFFSET   0.000000  -0.390000   0.000000
                CHANNELS 3 Xrotation Yrotation Zrotation
                JOINT rToeJoint
                {
                    OFFSET   0.000000  -0.050000   0.130000
                    CHANNELS 3 Xrotation Yrotation Zrotation
                    End Site
                    {
                        OFFSET  -0.010000   0.002000   0.060000
                    }
                }
            }
        }
    }
    JOINT lHip
    {
        OFFSET   0.100000  -0.051395   0.000000
        CHANNELS 3 Xrotation Yrotation Zrotation
        JOINT lKnee
        {
            OFFSET   0.000000  -0.410000   0.000000
            CHANNELS 3 Xrotation Yrotation Zrotation
            JOINT lAnkle
            {
                OFFSET   0.000000  -0.390000   0.000000
                CHANNELS 3 Xrotation Yrotation Zrotation
                JOINT lToeJoint
                {
                    OFFSET   0.000000  -0.050000   0.130000
                    CHANNELS 3 Xrotation Yrotation Zrotation
                    End Site
                    {
                        OFFSET   0.010000   0.002000   0.060000
                    }
                }
            }
        }
    }
}
MOTION
Frames: 15
Frame Time:   0.008333
 -2.376719   0.925631   3.975860   0.000000   0.000000   0.000000   0.000000   0.000000   0.000000   0.000000   0.000000   0.000000   0.000000   0.000000   0.000000   0.000000   0.000000   0.000000   0.000000   0.000000   0.000000   0.000000   0.000000   0.000000   0.000000   0.000000   0.000000   0.000000   0.000000   0.000000   0.000000   0.000000   0.000000   0.000000   0.000000   0.000000   0.000000   0.000000   0.000000   0.000000   0.000000   0.000000   0.000000   0.000000   0.000000   0.000000   0.000000   0.000000   0.000000   0.000000   0.000000   0.000000   0.000000   0.000000   0.000000   0.000000   0.000000   0.000000   0.000000   0.000000   0.000000   0.000000   0.000000
 -2.376450   0.926130   3.975624  -0.924244   0.075762   0.203308   1.207269   0.073122  -0.246668   0.149832  -0.130038   0.015106  -0.152496   0.194693   0.032718  -0.161622  -0.527440   0.462371  -1.287214  -0.482561   1.958579   0.075392   3.662845   0.030646   0.035412  -1.066562  -3.609930  -0.240426   0.346259  -0.160273  -0.590449   0.477388  -2.121730   0.067975  -3.383591  -0.010213   0.010347   1.107689   3.285192   0.487805   0.234845  -0.466657   1.623931   0.003820   0.004358  -1.344098  -0.131451   0.154725   0.130420   0.000122   0.000208   0.443701  -0.121926  -0.075765   1.793116  -0.002000  -0.000658  -1.535349   0.108981   0.264425   0.184232  -0.000628   0.000103
 -2.376103   0.926953   3.975439  -1.945135   0.168383   0.420714   2.384663   0.124569  -0.487227   0.433213  -0.281819   0.024857  -0.222248   0.385560   0.058938  -0.313411  -1.036810   1.641512  -2.551365  -0.932556   4.498793   0.177024   7.435063   0.055399   0.063196  -1.173246  -6.550135  -0.466022   0.642075  -1.039787  -1.143980   0.857925  -4.672950   0.151660  -6.655437  -0.016596   0.024982   1.270553   5.854453   1.040001   0.452192  -1.124452   3.386124   0.010251   0.007867  -2.591147  -0.259179   0.295371   0.226733   0.000355   0.000322   0.969141  -0.229075  -0.022673   3.732816  -0.006166  -0.000359  -2.964190   0.207653   0.514568   0.306600  -0.001056   0.000183
 -2.375734   0.927680   3.975270  -2.931849   0.249900   0.626714   3.477405   0.156404  -0.703513   0.719431  -0.440596   0.038932  -0.275042   0.564496   0.081911  -0.440312  -1.490540   3.254846  -3.775844  -1.406314   7.420057   0.282291  11.222614   0.076852   0.100435  -1.033602  -8.598533  -0.669467   0.877245  -2.372605  -1.647979   1.197187  -7.433187   0.229488  -9.730146  -0.021147   0.048762   1.166139   7.552873   1.571729   0.639981  -1.907117   5.073545   0.017323   0.009350  -3.751685  -0.383709   0.423241   0.319725   0.000660   0.000370   1.500123  -0.317886   0.166526   5.593036  -0.011271   0.000523  -4.295428   0.296420   0.751248   0.420464  -0.001469   0.000248
 -2.375340   0.927996   3.975091  -3.862453   0.305999   0.815529   4.491226   0.173809  -0.889861   0.985792  -0.600140   0.072711  -0.326946   0.731651   0.098353  -0.536778  -1.898066   5.161277  -4.892479  -1.906073  10.456749   0.377373  15.008588   0.094004   0.122937  -0.869380  -9.883249  -0.849130   1.070298  -3.976461  -2.098081   1.516824 -10.274228   0.292315 -12.605391  -0.024055   0.067256   1.000833   8.581783   2.064495   0.801776  -2.783724   6.653865   0.024003   0.009028  -4.834721  -0.504457   0.539668   0.400038   0.000941   0.000351   2.018988  -0.391887   0.471732   7.342298  -0.016426   0.001604  -5.538478   0.376118   0.975211   0.518941  -0.001788   0.000281
 -2.374917   0.927670   3.974886  -4.736585   0.330753   0.987261   5.436815   0.180827  -1.044221   1.234748  -0.756440   0.128393  -0.380115   0.887591   0.110958  -0.601048  -2.266157   7.223490  -5.893167  -2.431107  13.490358   0.456089  18.787368   0.107637   0.123254  -0.747793 -10.629395  -1.005260   1.233488  -5.721154  -2.494354   1.825430 -13.107088   0.337306 -15.289162  -0.025354   0.074627   0.839445   9.147287   2.515576   0.942092  -3.732803   8.127061   0.029756   0.007392  -5.845962  -0.620946   0.645707   0.468070   0.001163   0.000290   2.521621  -0.454314   0.869528   8.981905  -0.021133   0.002681  -6.699503   0.447386   1.186912   0.603487  -0.002004   0.000285
 -2.374471   0.926541   3.974645  -5.557286   0.322978   1.143032   6.323529   0.180018  -1.167360   1.471728  -0.907464   0.204696  -0.433816   1.033003   0.121812  -0.634466  -2.599214   9.342823  -6.781977  -2.976264  16.455412   0.516408  22.557645   0.118716   0.101315  -0.684968 -11.018934  -1.139877   1.373599  -7.515363  -2.840050   2.125017 -15.871975   0.365062 -17.792953  -0.025213   0.070971   0.699513   9.411278   2.925633   1.065109  -4.735707   9.498616   0.034326   0.004936  -6.790190  -0.732806   0.742285   0.526128   0.001320   0.000208   3.006446  -0.507596   1.339077  10.517970  -0.025136   0.003657  -7.783807   0.510877   1.386769   0.676838  -0.002130   0.000269
 -2.374109   0.924110   3.973635  -5.776010   0.135357   1.180714   6.777554   0.223488  -1.164171   1.533193  -0.927332   0.286822  -0.623532   1.034312   0.066351  -0.538330  -2.903819  11.027826  -7.448825  -3.540944  19.172167   0.542197  26.312460   0.121422  -0.004434  -0.683785 -10.759221  -0.966343   1.636664  -8.709052  -3.303119   2.496002 -18.884970   0.387372 -20.559388  -0.024369   0.004682   0.621024   9.236788   2.387589   1.074895  -5.563339  11.327908   0.039416  -0.003135  -7.663730  -0.910795   1.022753   0.683920   0.001754  -0.000474   2.928533  -0.370382   1.905407  11.433160  -0.024927   0.003958  -8.401527   0.696541   1.483670   0.812097  -0.002542   0.000445
 -2.373804   0.920544   3.972388  -5.939527  -0.047999   1.202840   7.252375   0.251590  -1.146734   1.587278  -0.938171   0.369433  -0.818500   1.029583   0.017028  -0.438431  -3.180990  12.472770  -8.046637  -4.093102  21.615292   0.544268  30.068362   0.122964  -0.109401  -0.712591 -10.561863  -0.796430   1.889094  -9.721415  -3.714855   2.864496 -21.640335   0.389397 -23.154337  -0.022262  -0.044887   0.451947   9.055033   1.808076   1.079604  -6.314054  13.045958   0.041430  -0.009624  -8.474566  -1.083397   1.281869   0.843937   0.002043  -0.001057   2.777823  -0.245441   2.460873  12.168759  -0.023643   0.003979  -8.980405   0.870016   1.576797   0.954995  -0.002878   0.000587
 -2.373546   0.915929   3.971027  -6.086503  -0.226398   1.225105   7.738483   0.276920  -1.132075   1.664856  -0.945938   0.443760  -0.996027   1.024702  -0.026027  -0.342235  -3.432201  13.732708  -8.588015  -4.623848  23.827509   0.530399  33.829663   0.124061  -0.204237  -0.724492 -10.506266  -0.639533   2.119578 -10.592615  -4.087086   3.222684 -24.158194   0.378087 -25.580569  -0.019727  -0.085811   0.261795   8.979345   1.252542   1.092435  -7.006197  14.640571   0.041239  -0.014320  -9.231208  -1.247496   1.521270   0.990262   0.002162  -0.001455   2.588503  -0.132335   2.986130  12.817902  -0.022007   0.003874  -9.522784   1.030727   1.665597   1.083907  -0.003022   0.000665
 -2.373454   0.910731   3.969472  -6.215011  -0.246918   1.247699   8.237435   0.246499  -1.123549   1.761362  -0.992762   0.518321  -1.158034   1.018079  -0.063150  -0.245674  -3.669481  14.871345  -9.075782  -5.140386  25.850853   0.507565  37.590853   0.123288  -0.292106  -0.727374 -10.574844  -0.507409   2.307326 -11.365012  -4.431313   3.553573 -26.470798   0.359193 -27.851570  -0.017444  -0.117528   0.048699   9.005905   0.758251   1.250185  -7.381032  16.011194   0.037055  -0.012833 -10.331863  -1.173661   1.907478  -2.988826   0.002814  -0.004705   2.322690  -0.042283   3.500892  13.397845  -0.020115   0.004405 -10.028289   1.178360   1.749226   1.213331  -0.003099   0.000877
 -2.373104   0.909576   3.968151  -6.580594  -0.335348   1.459488   8.920024   0.247621  -1.234490   1.979039  -1.016857   0.512186  -1.298719   1.013281  -0.106149  -0.159470  -3.848759  16.157127  -9.506041  -5.638377  27.796918   0.491316  41.318834   0.119185  -0.386038  -0.802091 -10.722649  -0.391874   2.452759 -12.329063  -4.737138   3.873275 -28.700495   0.342114 -29.945599  -0.014205  -0.155180  -0.093044   9.105938   0.258803   1.403213  -7.665860  17.653619   0.030365  -0.012196 -11.095922  -1.117455   2.331498  -2.512594   0.000813  -0.003851   2.081700   0.022317   3.277020  14.512968  -0.015872   0.004155 -10.498689   1.145193   1.507296   1.049354  -0.002839   0.000702
 -2.372937   0.908559   3.967187  -6.855306  -0.448848   1.656854   9.444394   0.269893  -1.335692   2.175610  -1.020304   0.496618  -1.413685   1.009166  -0.146044  -0.044487  -4.031962  17.246922  -9.865776  -6.122192  29.609404   0.465669  45.062906   0.118224  -0.482928  -0.874210 -10.747607  -0.251932   2.620659 -13.127166  -4.984597   4.200280 -30.788621   0.319207 -31.907606  -0.012937  -0.197355  -0.216458   9.054890  -0.176867   1.473643  -7.926870  18.988715   0.024413  -0.012187 -11.723811  -1.200359   2.514765  -2.066118   0.000195  -0.003999   1.901541   0.118146   3.062296  15.372560  -0.012504   0.003687 -10.899541   1.211785   1.516141   0.963586  -0.002277   0.000490
 -2.372874   0.907652   3.966132  -6.911045  -0.644802   1.793596   9.818288   0.310595  -1.404529   2.271814  -0.971961   0.521709  -1.564169   0.971994  -0.154918   0.120653  -4.130779  17.901029  -9.999790  -6.459088  31.096008   0.428106  48.788734   0.105872  -0.612124  -0.993157 -10.438487   0.018412   2.731325 -13.648366  -5.159307   4.511415 -32.666534   0.290514 -33.721122  -0.008935  -0.295630  -0.306050   8.795826  -0.771301   1.441939  -8.143490  20.079338   0.019174  -0.013347 -12.181332  -1.207387   2.635708  -1.709868  -0.000030  -0.004260   1.535664   0.244891   2.905591  16.160328  -0.009932   0.002815 -11.265828   1.301344   1.568139   0.905292  -0.001802   0.000364
 -2.372960   0.906819   3.965108  -6.909795  -0.901360   1.897208  10.170126   0.370342  -1.459438   2.338887  -0.900753   0.540736  -1.713005   0.935955  -0.151299   0.241723  -4.211932  18.297567 -10.161364  -6.744397  32.341299   0.378993  52.460325   0.099240  -0.705748  -1.014793 -10.254959   0.270037   2.848650 -13.987168  -5.324370   4.814565 -34.318323   0.259367 -35.415240  -0.005993  -0.386640  -0.382055   8.654233  -1.372756   1.385483  -8.331489  21.027712   0.014775  -0.014377 -12.579214  -1.242288   2.740187  -1.381226  -0.000173  -0.004696   1.171911   0.381257   2.784243  16.851919  -0.008003   0.001770 -11.594998   1.404661   1.628297   0.863972  -0.001423   0.000287
